<svg
  width="512"
  height="512"
  viewBox="0 0 512 512"
  fill="none"
  xmlns="http://www.w3.org/2000/svg"
>
<rect
    x="112.419"
    y="36.637"
    width="516"
    height="110"
    rx="25"
    transform="rotate(45 112.419 36.637)"
    fill="#FDF086"
  />
<path
    d="M386.305 54.6777C396.068 44.9146 411.897 44.9146 421.66 54.6777L458.873 91.8905C468.636 101.654 468.636 117.483 458.873 127.246L205.544 380.575C195.781 390.338 179.952 390.338 170.189 380.575L132.976 343.362C123.213 333.599 123.213 317.77 132.976 308.006L386.305 54.6777Z"
    fill="#51A8EE"
    stroke="#FFFDFD"
    stroke-width="9"
    stroke-linejoin="round"
  />
<path
    d="M74.7341 367.142C82.5446 359.332 95.2079 359.332 103.018 367.142L147.302 411.426C155.113 419.237 155.113 431.9 147.302 439.71L121.71 465.302C113.9 473.113 101.236 473.113 93.426 465.302L49.1421 421.018C41.3316 413.208 41.3316 400.545 49.1421 392.734L74.7341 367.142Z"
    fill="#51A8EE"
    stroke="#FFFDFD"
    stroke-width="9"
    stroke-linejoin="round"
  />
</svg>
